<?xml version="1.0" standalone="no"?>
<!DOCTYPE svg PUBLIC "-//W3C//DTD SVG 20010904//EN"
 "http://www.w3.org/TR/2001/REC-SVG-20010904/DTD/svg10.dtd">
<svg version="1.0" xmlns="http://www.w3.org/2000/svg"
 width="750.000000pt" height="750.000000pt" viewBox="0 0 750.000000 750.000000"
 preserveAspectRatio="xMidYMid meet">
<metadata>
Created by potrace 1.16, written by Peter Selinger 2001-2019
</metadata>
<g transform="translate(0.000000,750.000000) scale(0.100000,-0.100000)"
fill="#000000" stroke="none">
<path d="M3725 7180 c-302 -22 -549 -67 -714 -130 -237 -92 -451 -287 -585
-533 -119 -220 -232 -606 -256 -879 -11 -124 -19 -162 -45 -201 -27 -42 -67
-48 -272 -45 -182 3 -190 2 -268 -24 -227 -78 -368 -231 -424 -463 -53 -217
-97 -514 -121 -810 -6 -77 -13 -156 -15 -176 -12 -102 -20 -408 -19 -694 2
-533 48 -865 146 -1065 57 -116 195 -255 313 -317 153 -80 311 -121 498 -130
109 -6 120 -8 127 -27 5 -12 14 -77 20 -146 21 -227 61 -476 100 -617 76 -278
314 -497 630 -581 81 -21 117 -25 240 -25 125 0 159 4 245 27 234 61 443 202
522 353 78 147 103 320 103 723 0 151 4 281 9 288 7 11 25 9 98 -11 104 -29
148 -49 163 -77 19 -36 29 -116 31 -251 3 -242 23 -351 90 -487 78 -160 186
-240 394 -292 155 -40 293 -54 460 -47 331 13 535 126 610 337 36 101 141 759
220 1375 67 525 69 568 70 1165 0 300 -4 636 -9 746 -6 149 -5 207 4 223 6 12
66 77 133 144 91 90 133 141 164 197 119 214 141 449 63 682 -78 232 -140 311
-490 620 -123 109 -197 196 -349 409 -148 207 -298 364 -436 456 -231 155
-482 243 -775 273 -143 14 -528 20 -675 10z m1528 -1259 c394 -79 701 -297
808 -574 51 -134 55 -271 9 -375 -90 -203 -386 -387 -785 -487 -220 -55 -340
-69 -610 -69 -266 0 -351 12 -532 75 -249 88 -333 167 -412 391 -49 141 -64
243 -58 393 10 246 79 397 212 463 93 46 408 138 590 172 180 33 250 39 465
36 161 -3 228 -8 313 -25z"/>
</g>
</svg>
